<svg width="74" height="86" viewBox="0 0 74 86" fill="none" xmlns="http://www.w3.org/2000/svg">

    <path
        d="M 36.4 85.3 C 19.2 76.7 8 64.4 3.2 48.8 C -0.6 36.7 -0.4 22.8 3.6 7.7 L 3.7 7.2 L 4.2 6.9 C 4.7 6.7 16.3 1 36.9 1 C 57.6 1 69.2 6.7 69.7 6.9 L 70.2 7.2 L 70.3 7.7 C 74.3 22.8 74.4 36.7 70.7 48.8 C 65.9 64.4 54.7 76.7 37.5 85.3 L 36.9 85.6 L 36.4 85.3 Z"
        fill="#0a2846" />
    <path
        d="M 36.9 1.1 C 57.5 1.1 69.1 6.8 69.6 7.1 L 70 7.3 L 70.1 7.7 C 74.1 22.8 74.2 36.6 70.5 48.7 C 65.7 64.3 54.6 76.6 37.4 85.1 L 36.9 85.3 L 36.5 85.1 C 19.3 76.6 8.1 64.3 3.3 48.7 C -0.4 36.6 -0.2 22.8 3.7 7.7 L 3.9 7.3 L 4.3 7.1 C 4.7 6.8 16.3 1.1 36.9 1.1 Z M 36.9 0.8 C 16.2 0.8 4.6 6.5 4.1 6.8 L 3.7 7 L 3.5 7 L 3.5 7.2 L 3.4 7.6 C -0.6 22.8 -0.8 36.7 3 48.8 C 7.8 64.5 19 76.8 36.3 85.5 L 36.8 85.7 L 36.9 85.8 L 37.1 85.7 L 37.6 85.5 C 54.8 76.8 66.1 64.5 70.9 48.8 C 74.6 36.7 74.5 22.8 70.5 7.6 L 70.4 7.2 L 70.3 7 L 70.2 7 L 69.8 6.8 C 69.3 6.5 57.6 0.8 36.9 0.8 Z"
        fill="#0a2846" />
    <path
        d="M 36.9 84.3 C 74.4 65.6 75.7 32.9 69.2 8 C 69.2 8 57.5 2.1 36.9 2.1 C 16.3 2.1 4.7 8 4.7 8 C -1.9 32.9 -0.6 65.6 36.9 84.3 Z"
        fill="#ffb91e" />
    <path
        d="M 36.9 81.7 C 72.4 64 73.7 33.1 67.4 9.5 C 67.4 9.5 56.4 3.9 36.9 3.9 C 17.4 3.9 6.4 9.5 6.4 9.5 C 0.2 33.1 1.4 64 36.9 81.7 Z"
        fill="white" />
    <path d="M 66 11.5 L 15.2 61.7 C 20.1 68.2 27.1 74.1 36.9 79 C 70.1 62.5 71.6 33.7 66 11.5 Z" fill="#6e8cd2" />
    <path
        d="M 65.1 10.4 C 62.4 9.2 52.6 5.5 36.9 5.5 C 18.5 5.5 8.1 10.7 8.1 10.7 C 4 26.1 3.3 44.8 14.3 60.5 L 65.1 10.4 Z"
        fill="#0a2846" />
    <path
        d="M 29.8 21.7 C 29.6 21.6 29.4 21.6 29.3 21.7 C 29.2 21.9 29.3 22.1 29.5 22.2 C 29.7 22.3 29.9 22.3 30 22.1 C 30.1 22 30 21.8 29.8 21.7 Z"
        fill="#ffb91e" />
    <path
        d="M 35.4 24.7 C 35.1 25.9 34 26.9 33.9 27.4 C 33.8 27.9 34.4 28.1 34.6 28.1 C 34.9 28 35.3 28.1 35.8 27.2 C 36.4 26.3 36.8 25.3 36.8 23.9 C 36.8 22.7 36.2 21.5 35 20.6 C 35.7 21.9 35.8 23.2 35.4 24.7 Z"
        fill="#ffb91e" />
    <path
        d="M 39.1 28.5 C 38.5 28.4 37.8 28.3 37.2 28.3 C 36.9 28.3 36 28.3 35.6 28.3 C 35.2 28.5 35 28.5 34.7 28.6 L 34.6 28.6 C 34.6 28.6 34.6 28.6 34.6 28.6 C 34.3 28.6 33.9 28.5 33.7 28.2 C 33.7 28.1 33.6 28.1 33.6 28.1 C 33.2 28.2 32.3 28.3 31.9 28.4 C 31.7 28.5 31.5 28.5 31.5 28.3 C 31.5 28.1 31.6 27.9 31.8 27.9 C 32 27.8 32.8 27.7 33.4 27.6 C 33.4 27.5 33.4 27.4 33.4 27.4 C 33.5 27 33.7 26.7 34 26.3 C 34.4 25.8 34.8 25.2 35 24.6 C 35.1 24.1 35.2 23.6 35.2 23.1 C 34.6 22.7 33.9 22.1 33.4 21.9 C 31.1 20.9 31.9 19.1 28.5 17.4 C 27.6 16.9 26.8 16.5 26 16.2 C 27.1 18.1 26 19.8 25.1 19.6 C 25.2 19.5 26.3 19.2 25.8 17.5 C 25.4 15.9 24.6 14.6 23.8 13.8 C 22.9 13 21.8 12.8 21.8 12.8 C 21.8 12.8 21.8 14.1 21.4 14.8 C 20.9 15.8 20.7 17.3 21.2 18.2 C 21.6 19.1 22.4 19.6 22.8 19.7 C 20.4 19.4 20 16.5 20.9 14.8 C 17.9 13.8 14.5 15.2 12.7 13.7 C 12.7 14.4 13 15.4 14.8 16.7 C 14.8 16.7 13.3 16.8 12.2 15.8 C 12 18.1 12.3 19.9 13.2 22.5 C 14.5 26 16.5 26.5 17.5 30.4 C 18 32.3 17.6 34.5 16.7 35.4 C 18.7 35.4 20.8 33.1 20.8 33.1 C 20.8 33.1 21.1 33.6 20.8 34.1 C 21.9 34.1 23.6 32.4 23.6 32.4 C 23.6 32.4 24 32.8 23.7 33.3 C 24.6 33.2 25.8 32.1 26.8 31.8 C 27.9 31.5 28.5 31.5 28.7 31.6 C 31 30.2 33.4 29.9 34.2 30.1 C 34.8 30.2 35.6 29.7 36.2 29.6 C 36.6 29.5 37.3 29.6 38 29.4 C 38.8 29.3 39.3 28.7 39.1 28.5 Z M 24.8 17.9 C 24.7 18.4 24.8 18.6 24.7 18.6 C 24.7 18.7 24.2 18.4 24.1 17.8 C 24.1 17.2 24.3 17.1 24.2 16.7 C 24.1 16.2 23.7 15.9 23.5 15.7 C 23.3 15.6 23.2 15.5 23.2 15.5 C 23.2 15.4 23.4 15.4 23.6 15.5 C 23.9 15.6 24.7 16 24.8 16.7 C 24.9 17.2 24.9 17.5 24.8 17.9 Z M 30.4 22.2 C 30.3 22.5 29.9 22.8 29.4 22.7 C 28.8 22.6 28.1 21.6 28.2 21.2 C 28.3 20.8 29.1 20.9 29.7 21.1 C 29.7 21.1 29.6 21 29.5 21 C 29 20.5 28.1 20.4 27.7 20.5 C 27.3 20.5 27.1 20.6 27.1 20.5 C 27.1 20.4 27.2 20.3 27.7 20.1 C 28.1 20 29.3 19.9 29.9 20.4 C 30.7 21 30.6 21.3 30.9 21.9 C 31.3 22.6 32.1 22.7 32.1 22.8 C 32.1 22.9 31.3 23 30.6 22.4 C 30.6 22.3 30.5 22.3 30.4 22.2 Z"
        fill="#ffb91e" />
    <path
        d="M 44.7 40 L 45.6 40.1 C 45.6 40.1 44.9 42 44.9 44.3 C 44.9 46.5 45.6 48.5 45.6 48.5 L 44.7 48.6 C 44.7 48.6 43.6 47.2 43.6 44.3 C 43.6 41.3 44.7 40 44.7 40 Z"
        fill="#ffb91e" />
    <path
        d="M 58.5 43.3 C 55.2 43.1 48 43.1 45.6 43.1 C 45.6 43.4 45.5 43.7 45.5 44 C 48.5 44.1 58.2 44.2 58.2 44.3 C 58.2 44.4 48.5 44.5 45.5 44.5 C 45.5 44.8 45.6 45.1 45.6 45.4 C 48 45.4 55.2 45.4 58.5 45.2 C 60.5 45 62.3 44.5 63.3 44.2 C 62.3 43.9 60.5 43.4 58.5 43.3 Z"
        fill="white" />
    <path
        d="M 39.7 49 L 40.6 49.1 C 40.6 49.1 39.9 51.1 39.9 53.3 C 39.9 55.5 40.6 57.5 40.6 57.5 L 39.7 57.6 C 39.7 57.6 38.7 56.3 38.7 53.3 C 38.7 50.3 39.7 49 39.7 49 Z"
        fill="#ffb91e" />
    <path
        d="M 53.5 52.3 C 50.3 52.1 43 52.1 40.6 52.1 C 40.6 52.4 40.6 52.7 40.6 53.1 C 43.6 53.1 53.2 53.2 53.2 53.3 C 53.2 53.4 43.6 53.5 40.6 53.5 C 40.6 53.9 40.6 54.1 40.6 54.4 C 43.1 54.4 50.3 54.4 53.5 54.2 C 55.6 54.1 57.4 53.6 58.3 53.3 C 57.4 53 55.5 52.5 53.5 52.3 Z"
        fill="white" />
    <path
        d="M 34.7 58 L 35.7 58.1 C 35.7 58.1 35 60.1 35 62.3 C 35 64.6 35.7 66.5 35.7 66.5 L 34.7 66.6 C 34.7 66.6 33.7 65.3 33.7 62.3 C 33.7 59.4 34.7 58 34.7 58 Z"
        fill="#ffb91e" />
    <path
        d="M 48.6 61.4 C 45.3 61.1 38 61.1 35.7 61.1 C 35.6 61.4 35.6 61.8 35.6 62.1 C 38.6 62.1 48.3 62.2 48.3 62.3 C 48.3 62.4 38.6 62.5 35.6 62.6 C 35.6 62.9 35.6 63.2 35.7 63.5 C 38.1 63.5 45.3 63.4 48.6 63.2 C 50.6 63.1 52.4 62.6 53.4 62.3 C 52.4 62 50.6 61.5 48.6 61.4 Z"
        fill="white" />
    <path
        d="M 41 24.9 C 40 24.8 39.2 24.9 38.9 25.6 C 38.7 26.1 38.3 26 38.4 25.7 C 38.5 25.3 39 24.9 39 24.9 C 39 24.9 38.1 24.7 37.2 24.4 C 37.2 25.5 36.8 26.5 36.2 27.5 C 36.2 27.6 36.1 27.6 36.1 27.7 C 36.4 27.7 37 27.8 37.2 27.8 C 38 27.8 38.8 27.9 39.5 28 C 39.7 28 39.9 27.9 40 27.8 C 40.5 27.4 40.3 26.7 40.6 26.2 C 40.9 25.6 41.3 25 41 24.9 Z M 39.9 26.6 C 39.5 26.6 39.5 27.1 39.3 27 C 39.1 27 39.6 25.9 40 25.8 C 40.5 25.7 40.3 26.6 39.9 26.6 Z"
        fill="#ffb91e" />
    <path
        d="M 33.1 62.3 C 33.1 61.9 33.1 61.6 33.1 61.2 L 29.5 61.6 C 29.3 61.3 29 61.2 28.6 61.2 C 28 61.2 27.5 61.7 27.5 62.3 C 27.5 62.9 28 63.4 28.6 63.4 C 29 63.4 29.3 63.3 29.5 63.1 L 33.1 63.4 C 33.1 63.1 33.1 62.7 33.1 62.3 Z"
        fill="#ffb91e" />
    <path
        d="M 38 53.3 C 38 52.9 38 52.6 38.1 52.2 L 34.5 52.6 C 34.3 52.3 34 52.1 33.6 52.1 C 33 52.1 32.4 52.6 32.4 53.3 C 32.4 53.9 33 54.4 33.6 54.4 C 33.9 54.4 34.2 54.2 34.4 54 L 38.1 54.4 C 38 54 38 53.7 38 53.3 Z"
        fill="#ffb91e" />
    <path
        d="M 43 44.3 C 43 43.9 43 43.5 43 43.2 L 39.4 43.6 C 39.2 43.3 38.9 43.1 38.6 43.1 C 37.9 43.1 37.4 43.6 37.4 44.2 C 37.4 44.9 37.9 45.4 38.6 45.4 C 38.9 45.4 39.2 45.2 39.4 45 L 43 45.4 C 43 45 43 44.7 43 44.3 Z"
        fill="#ffb91e" />
</svg>